<?xml version="1.0" encoding="UTF-8"?>
<svg xmlns="http://www.w3.org/2000/svg" xmlns:xlink="http://www.w3.org/1999/xlink" width="842pt" height="580.77pt" viewBox="0 0 842 580.77" version="1.1">
<defs>
<clipPath id="clip1">
  <path d="M 82 451 L 242 451 L 242 580.769531 L 82 580.769531 Z M 82 451 "/>
</clipPath>
<clipPath id="clip2">
  <path d="M 252 453 L 406 453 L 406 580.769531 L 252 580.769531 Z M 252 453 "/>
</clipPath>
<clipPath id="clip3">
  <path d="M 392 453 L 585 453 L 585 580.769531 L 392 580.769531 Z M 392 453 "/>
</clipPath>
<clipPath id="clip4">
  <path d="M 598 453 L 769 453 L 769 580.769531 L 598 580.769531 Z M 598 453 "/>
</clipPath>
</defs>
<g id="surface1">
<path style=" stroke:none;fill-rule:evenodd;fill:rgb(97.999573%,67.098999%,30.999756%);fill-opacity:1;" d="M 381 417 L 85 417 L 0 313 L 124 269 L 381 417 "/>
<path style=" stroke:none;fill-rule:evenodd;fill:rgb(92.89856%,10.998535%,14.099121%);fill-opacity:1;" d="M 387 395 L 134 249 L 107 115 L 244 136 L 387 395 "/>
<path style=" stroke:none;fill-rule:evenodd;fill:rgb(93.699646%,35.699463%,63.09967%);fill-opacity:1;" d="M 402 387 L 258 134 L 306 0 L 409 91 L 402 387 "/>
<path style=" stroke:none;fill-rule:evenodd;fill:rgb(0%,44.699097%,73.699951%);fill-opacity:1;" d="M 425 385 L 422 96 L 529 4 L 573 131 L 425 385 "/>
<path style=" stroke:none;fill-rule:evenodd;fill:rgb(6.698608%,69.398499%,29.399109%);fill-opacity:1;" d="M 441 392 L 582 141 L 724 113 L 698 249 L 441 392 "/>
<path style=" stroke:none;fill-rule:evenodd;fill:rgb(100%,86.698914%,0%);fill-opacity:1;" d="M 452 412 L 710 261 L 842 313 L 753 417 L 452 412 "/>
<g clip-path="url(#clip1)" clip-rule="nonzero">
<path style=" stroke:none;fill-rule:evenodd;fill:rgb(57.598877%,58.399963%,59.599304%);fill-opacity:1;" d="M 195.046875 495.191406 L 236.597656 495.191406 C 236.597656 495.191406 236.597656 486.921875 236.597656 482.046875 C 236.597656 477.171875 234.480469 465.9375 220.699219 459.367188 C 206.921875 452.792969 182.636719 451.523438 158.160156 451.523438 C 133.6875 451.523438 116.609375 452.792969 103.253906 457.035156 C 89.898438 461.273438 82.476563 475.054688 82.476563 490.316406 C 82.476563 505.582031 96.894531 523.175781 115.339844 525.933594 C 133.78125 528.6875 161.976563 528.898438 161.976563 528.898438 L 184.871094 528.898438 C 184.871094 528.898438 199.074219 528.898438 199.074219 541.195313 C 199.074219 553.492188 191.445313 554.550781 171.304688 555.398438 C 151.164063 556.246094 140.140625 555.609375 135.476563 554.976563 C 130.8125 554.339844 123.605469 551.582031 123.605469 545.433594 C 123.605469 539.289063 123.605469 534.625 123.605469 534.625 L 82.265625 534.625 L 82.265625 546.917969 C 82.265625 546.917969 81.207031 575.960938 120.851563 579.355469 C 160.492188 582.746094 210.3125 579.355469 218.578125 576.386719 C 226.847656 573.417969 242.324219 564.726563 241.476563 540.769531 C 240.628906 516.816406 230.027344 508.761719 198.015625 503.25 C 176.605469 499.433594 159.855469 501.765625 148.199219 501.550781 C 136.539063 501.339844 125.300781 501.550781 125.300781 489.257813 C 125.300781 476.960938 140.566406 477.597656 152.011719 477.597656 C 163.460938 477.597656 182.964844 477.597656 182.964844 477.597656 C 182.964844 477.597656 195.472656 476.960938 195.472656 487.347656 C 195.472656 491.164063 195.046875 495.191406 195.046875 495.191406 "/>
</g>
<g clip-path="url(#clip2)" clip-rule="nonzero">
<path style=" stroke:none;fill-rule:evenodd;fill:rgb(57.598877%,58.399963%,59.599304%);fill-opacity:1;" d="M 252.179688 453.003906 L 405.984375 453.003906 L 405.984375 480.140625 L 350.652344 480.140625 L 350.652344 580.414063 L 306.558594 580.414063 L 306.558594 480.566406 L 252.179688 480.566406 L 252.179688 453.003906 "/>
</g>
<g clip-path="url(#clip3)" clip-rule="nonzero">
<path style=" stroke:none;fill-rule:evenodd;fill:rgb(57.598877%,58.399963%,59.599304%);fill-opacity:1;" d="M 461.949219 533.140625 L 488.449219 479.503906 L 515.160156 533.140625 Z M 516.433594 453.007813 L 458.558594 453.007813 L 392.414063 580.519531 L 438.417969 580.519531 L 449.867188 558.15625 L 527.667969 558.15625 L 539.539063 580.519531 L 584.273438 580.519531 L 516.433594 453.007813 "/>
</g>
<g clip-path="url(#clip4)" clip-rule="nonzero">
<path style=" stroke:none;fill-rule:evenodd;fill:rgb(57.598877%,58.399963%,59.599304%);fill-opacity:1;" d="M 714.859375 500.070313 C 714.859375 513 698.75 513 698.75 513 L 640.875 513 L 640.875 480.351563 C 640.875 480.351563 687.515625 480.351563 701.082031 480.351563 C 714.648438 480.351563 714.859375 489.679688 714.859375 489.679688 C 714.859375 489.679688 714.859375 492.4375 714.859375 500.070313 Z M 716.980469 533.351563 C 716.980469 533.351563 739.875 529.960938 749.414063 521.90625 C 758.957031 513.847656 758.53125 499.007813 758.53125 487.136719 C 758.53125 453.429688 710.835938 453.21875 710.835938 453.21875 L 598.265625 453.21875 L 598.265625 580.574219 L 640.664063 580.574219 L 640.664063 540.347656 L 655.714844 540.347656 L 704.6875 580.574219 L 768.707031 580.574219 L 716.980469 533.351563 "/>
</g>
</g>
</svg>
